<?xml version="1.0" encoding="UTF-8" standalone="no"?>
<svg
   version="1.1"
   width="262.25446"
   height="268.85989"
   id="svg255"
   sodipodi:docname="logo.svg"
   inkscape:version="1.3.2 (091e20e, 2023-11-25)"
   xmlns:inkscape="http://www.inkscape.org/namespaces/inkscape"
   xmlns:sodipodi="http://sodipodi.sourceforge.net/DTD/sodipodi-0.dtd"
   xmlns="http://www.w3.org/2000/svg"
   xmlns:svg="http://www.w3.org/2000/svg">
  <defs
     id="defs255" />
  <sodipodi:namedview
     id="namedview255"
     pagecolor="#ffffff"
     bordercolor="#000000"
     borderopacity="0.25"
     inkscape:showpageshadow="2"
     inkscape:pageopacity="0.0"
     inkscape:pagecheckerboard="0"
     inkscape:deskcolor="#d1d1d1"
     inkscape:zoom="2.040313"
     inkscape:cx="175.21821"
     inkscape:cy="126.20613"
     inkscape:window-width="1632"
     inkscape:window-height="1040"
     inkscape:window-x="80"
     inkscape:window-y="44"
     inkscape:window-maximized="1"
     inkscape:current-layer="svg255" />
  <path
     id="path258"
     style="fill:#378fea;fill-opacity:1;stroke:#000000;stroke-width:12;stroke-dasharray:none;stroke-opacity:1"
     d="m 208.9214,214.94992 c 0,0 -25.10125,30.68558 -44.43232,39.4954 -19.33108,8.80982 -41.08764,12.09255 -52.3314,2.96215 -5.61045,-4.55591 -9.428,-12.10176 -11.35652,-19.60424 -1.935969,-7.53305 -1.967879,-15.02239 0.002,-19.39746 3.93176,-8.73238 13.33924,-15.85832 22.31578,-15.30887 8.97654,0.54946 20.65213,13.26112 8.69162,27.55156 -11.9605,14.29045 -30.71325,10.84859 -48.401109,-1.76451 C 54.645401,208.37249 25.427641,163.99944 17.657631,141.60653 5.1096114,105.44355 6.0141914,37 6.0141914,37 c 0,0 21.8640496,-3.19706 31.3149996,-8 10.62588,-5.40004 28.91549,-23 28.91549,-23 H 195.92075 c 0,0 18.28961,17.59996 28.91549,23 9.45095,4.80294 31.315,8 31.315,8 0,0 -1.74397,88.37169 -24.45337,137.42113 m 12.28051,18.14784 a 22.463009,22.463009 0 0 1 -22.46301,22.46301 22.463009,22.463009 0 0 1 -22.46301,-22.46301 22.463009,22.463009 0 0 1 22.46301,-22.46301 22.463009,22.463009 0 0 1 22.46301,22.46301 z" />
  <text
     xml:space="preserve"
     style="font-size:289.328px;font-family:'Fira Code';-inkscape-font-specification:'Fira Code';text-align:center;letter-spacing:29.5054px;word-spacing:0.0301383px;text-anchor:middle;opacity:1;fill:none;stroke:#ffffff;stroke-width:36.166;stroke-dasharray:none;stroke-opacity:1"
     x="132.98836"
     y="170.18361"
     id="text259"><tspan
       sodipodi:role="line"
       id="tspan259"
       x="147.74104"
       y="170.18361"
       style="font-style:normal;font-variant:normal;font-weight:normal;font-stretch:normal;font-family:'التاريخ';-inkscape-font-specification:'التاريخ';stroke:#ffffff;stroke-width:36.166;stroke-opacity:1">+</tspan></text>
</svg>
